<svg width="1943" height="576" viewBox="0 0 1943 576" fill="none" xmlns="http://www.w3.org/2000/svg">
<path d="M1756.95 153.678C1757.02 153.46 1757.04 153.231 1757.02 153.005C1757 152.778 1756.93 152.557 1756.83 152.356C1756.72 152.155 1756.57 151.977 1756.39 151.831C1756.21 151.686 1756.01 151.577 1755.79 151.51C1755.57 151.443 1755.33 151.42 1755.1 151.441C1754.87 151.463 1754.65 151.529 1754.45 151.635C1754.24 151.742 1754.06 151.887 1753.91 152.063C1753.77 152.238 1753.66 152.44 1753.59 152.658L1739.51 197.741C1739.37 198.181 1739.42 198.656 1739.64 199.063C1739.85 199.469 1740.23 199.774 1740.67 199.909C1741.12 200.044 1741.6 199.999 1742.01 199.784C1742.43 199.569 1742.74 199.201 1742.87 198.761L1756.95 153.678V153.678ZM1737.16 162.344C1737.32 162.505 1737.45 162.696 1737.54 162.907C1737.63 163.118 1737.67 163.344 1737.67 163.572C1737.67 163.8 1737.63 164.026 1737.54 164.236C1737.45 164.447 1737.32 164.638 1737.16 164.799L1726.08 175.71L1737.16 186.62C1737.49 186.945 1737.67 187.387 1737.67 187.847C1737.67 188.308 1737.49 188.749 1737.16 189.075C1736.83 189.401 1736.38 189.584 1735.91 189.584C1735.44 189.584 1735 189.401 1734.66 189.075L1722.35 176.937C1722.18 176.776 1722.05 176.585 1721.96 176.374C1721.87 176.163 1721.83 175.938 1721.83 175.71C1721.83 175.481 1721.87 175.256 1721.96 175.045C1722.05 174.834 1722.18 174.643 1722.35 174.482L1734.66 162.344C1734.83 162.183 1735.02 162.054 1735.24 161.967C1735.45 161.88 1735.68 161.835 1735.91 161.835C1736.14 161.835 1736.37 161.88 1736.59 161.967C1736.8 162.054 1736.99 162.183 1737.16 162.344V162.344ZM1759.3 162.344C1759.14 162.505 1759.01 162.696 1758.92 162.907C1758.83 163.118 1758.79 163.344 1758.79 163.572C1758.79 163.8 1758.83 164.026 1758.92 164.236C1759.01 164.447 1759.14 164.638 1759.3 164.799L1770.38 175.71L1759.3 186.62C1759.14 186.781 1759.01 186.972 1758.92 187.183C1758.83 187.394 1758.79 187.619 1758.79 187.847C1758.79 188.075 1758.83 188.301 1758.92 188.512C1759.01 188.722 1759.14 188.914 1759.3 189.075C1759.47 189.236 1759.66 189.364 1759.88 189.451C1760.09 189.539 1760.32 189.584 1760.55 189.584C1760.78 189.584 1761.01 189.539 1761.22 189.451C1761.44 189.364 1761.63 189.236 1761.8 189.075L1774.12 176.937C1774.28 176.776 1774.41 176.585 1774.5 176.374C1774.59 176.163 1774.63 175.938 1774.63 175.71C1774.63 175.481 1774.59 175.256 1774.5 175.045C1774.41 174.834 1774.28 174.643 1774.12 174.482L1761.8 162.344C1761.63 162.183 1761.44 162.054 1761.23 161.967C1761.01 161.88 1760.78 161.835 1760.55 161.835C1760.32 161.835 1760.09 161.88 1759.88 161.967C1759.66 162.054 1759.47 162.183 1759.3 162.344V162.344Z" fill="white" fill-opacity="0.3"/>
<path d="M1352.88 220.712C1352.95 220.494 1352.97 220.265 1352.95 220.039C1352.93 219.812 1352.86 219.592 1352.75 219.39C1352.65 219.189 1352.5 219.011 1352.32 218.866C1352.14 218.721 1351.94 218.611 1351.72 218.544C1351.5 218.477 1351.26 218.454 1351.03 218.475C1350.8 218.497 1350.58 218.563 1350.38 218.669C1350.17 218.776 1349.99 218.921 1349.84 219.097C1349.7 219.272 1349.58 219.475 1349.52 219.692L1335.44 264.776C1335.3 265.215 1335.35 265.691 1335.56 266.097C1335.78 266.504 1336.16 266.808 1336.6 266.943C1337.05 267.078 1337.53 267.033 1337.94 266.818C1338.36 266.603 1338.66 266.235 1338.8 265.795L1352.88 220.712V220.712ZM1333.09 229.378C1333.25 229.539 1333.38 229.731 1333.47 229.941C1333.56 230.152 1333.6 230.378 1333.6 230.606C1333.6 230.834 1333.56 231.06 1333.47 231.27C1333.38 231.481 1333.25 231.672 1333.09 231.834L1322.01 242.744L1333.09 253.654C1333.42 253.979 1333.6 254.421 1333.6 254.882C1333.6 255.342 1333.42 255.784 1333.09 256.109C1332.76 256.435 1332.31 256.618 1331.84 256.618C1331.37 256.618 1330.92 256.435 1330.59 256.109L1318.27 243.971C1318.11 243.81 1317.98 243.619 1317.89 243.408C1317.8 243.198 1317.76 242.972 1317.76 242.744C1317.76 242.516 1317.8 242.29 1317.89 242.079C1317.98 241.868 1318.11 241.677 1318.27 241.516L1330.59 229.378C1330.76 229.217 1330.95 229.089 1331.17 229.001C1331.38 228.914 1331.61 228.869 1331.84 228.869C1332.07 228.869 1332.3 228.914 1332.51 229.001C1332.73 229.089 1332.92 229.217 1333.09 229.378V229.378ZM1355.23 229.378C1355.07 229.539 1354.94 229.731 1354.85 229.941C1354.76 230.152 1354.72 230.378 1354.72 230.606C1354.72 230.834 1354.76 231.06 1354.85 231.27C1354.94 231.481 1355.07 231.672 1355.23 231.834L1366.31 242.744L1355.23 253.654C1355.07 253.815 1354.94 254.006 1354.85 254.217C1354.76 254.428 1354.72 254.654 1354.72 254.882C1354.72 255.11 1354.76 255.335 1354.85 255.546C1354.94 255.757 1355.07 255.948 1355.23 256.109C1355.4 256.27 1355.59 256.398 1355.8 256.486C1356.02 256.573 1356.25 256.618 1356.48 256.618C1356.71 256.618 1356.94 256.573 1357.15 256.486C1357.37 256.398 1357.56 256.27 1357.73 256.109L1370.04 243.971C1370.21 243.81 1370.34 243.619 1370.43 243.408C1370.52 243.198 1370.56 242.972 1370.56 242.744C1370.56 242.516 1370.52 242.29 1370.43 242.079C1370.34 241.868 1370.21 241.677 1370.04 241.516L1357.73 229.378C1357.56 229.217 1357.37 229.089 1357.15 229.001C1356.94 228.914 1356.71 228.869 1356.48 228.869C1356.25 228.869 1356.02 228.914 1355.8 229.001C1355.59 229.089 1355.4 229.217 1355.23 229.378V229.378Z" fill="white" fill-opacity="0.3"/>
<path d="M461.62 86.6308C461.688 86.4131 461.711 86.1844 461.69 85.9576C461.668 85.7309 461.601 85.5106 461.493 85.3093C461.385 85.1081 461.237 84.9298 461.059 84.7846C460.881 84.6395 460.676 84.5303 460.455 84.4633C460.234 84.3964 460.002 84.373 459.771 84.3944C459.541 84.4159 459.318 84.4818 459.113 84.5884C458.909 84.695 458.728 84.8402 458.581 85.0157C458.433 85.1912 458.323 85.3935 458.255 85.6112L444.175 130.695C444.038 131.134 444.083 131.61 444.302 132.016C444.52 132.422 444.894 132.727 445.34 132.862C445.786 132.997 446.269 132.952 446.681 132.737C447.094 132.522 447.403 132.154 447.54 131.714L461.62 86.6308V86.6308ZM441.824 95.2972C441.988 95.4583 442.118 95.6496 442.206 95.8603C442.295 96.0709 442.341 96.2968 442.341 96.5248C442.341 96.7529 442.295 96.9788 442.206 97.1894C442.118 97.4001 441.988 97.5914 441.824 97.7525L430.746 108.663L441.824 119.573C442.154 119.898 442.34 120.34 442.34 120.8C442.34 121.261 442.154 121.703 441.824 122.028C441.493 122.354 441.045 122.537 440.578 122.537C440.11 122.537 439.662 122.354 439.332 122.028L427.012 109.89C426.848 109.729 426.718 109.538 426.629 109.327C426.54 109.117 426.495 108.891 426.495 108.663C426.495 108.435 426.54 108.209 426.629 107.998C426.718 107.787 426.848 107.596 427.012 107.435L439.332 95.2972C439.495 95.1357 439.689 95.0076 439.903 94.9202C440.117 94.8328 440.346 94.7878 440.578 94.7878C440.809 94.7878 441.038 94.8328 441.252 94.9202C441.466 95.0076 441.66 95.1357 441.824 95.2972V95.2972ZM463.971 95.2972C463.807 95.4583 463.677 95.6496 463.588 95.8603C463.5 96.0709 463.454 96.2968 463.454 96.5248C463.454 96.7529 463.5 96.9788 463.588 97.1894C463.677 97.4001 463.807 97.5914 463.971 97.7525L475.048 108.663L463.971 119.573C463.807 119.734 463.678 119.925 463.589 120.136C463.5 120.347 463.455 120.572 463.455 120.8C463.455 121.028 463.5 121.254 463.589 121.465C463.678 121.676 463.807 121.867 463.971 122.028C464.135 122.189 464.329 122.317 464.543 122.404C464.757 122.492 464.986 122.537 465.217 122.537C465.449 122.537 465.678 122.492 465.891 122.404C466.105 122.317 466.3 122.189 466.463 122.028L478.783 109.89C478.947 109.729 479.077 109.538 479.166 109.327C479.254 109.117 479.3 108.891 479.3 108.663C479.3 108.435 479.254 108.209 479.166 107.998C479.077 107.787 478.947 107.596 478.783 107.435L466.463 95.2972C466.3 95.1357 466.105 95.0076 465.892 94.9202C465.678 94.8328 465.449 94.7878 465.217 94.7878C464.986 94.7878 464.756 94.8328 464.543 94.9202C464.329 95.0076 464.135 95.1357 463.971 95.2972V95.2972Z" fill="white" fill-opacity="0.3"/>
<path d="M154.213 176.797C154.281 176.58 154.304 176.351 154.283 176.124C154.261 175.897 154.194 175.677 154.086 175.476C153.978 175.275 153.83 175.096 153.652 174.951C153.474 174.806 153.269 174.697 153.048 174.63C152.827 174.563 152.594 174.539 152.364 174.561C152.134 174.582 151.911 174.648 151.706 174.755C151.502 174.861 151.321 175.007 151.174 175.182C151.026 175.358 150.916 175.56 150.848 175.778L136.768 220.861C136.631 221.301 136.676 221.776 136.895 222.182C137.113 222.589 137.487 222.893 137.933 223.028C138.379 223.164 138.862 223.119 139.274 222.903C139.687 222.688 139.996 222.32 140.133 221.881L154.213 176.797V176.797ZM134.417 185.464C134.581 185.625 134.711 185.816 134.799 186.027C134.888 186.237 134.934 186.463 134.934 186.691C134.934 186.919 134.888 187.145 134.799 187.356C134.711 187.567 134.581 187.758 134.417 187.919L123.339 198.829L134.417 209.739C134.747 210.065 134.933 210.507 134.933 210.967C134.933 211.427 134.747 211.869 134.417 212.195C134.086 212.52 133.638 212.703 133.171 212.703C132.703 212.703 132.255 212.52 131.925 212.195L119.605 200.057C119.441 199.896 119.311 199.704 119.222 199.494C119.133 199.283 119.088 199.057 119.088 198.829C119.088 198.601 119.133 198.375 119.222 198.165C119.311 197.954 119.441 197.763 119.605 197.602L131.925 185.464C132.088 185.302 132.282 185.174 132.496 185.087C132.71 184.999 132.939 184.954 133.171 184.954C133.402 184.954 133.631 184.999 133.845 185.087C134.059 185.174 134.253 185.302 134.417 185.464V185.464ZM156.564 185.464C156.4 185.625 156.27 185.816 156.181 186.027C156.093 186.237 156.047 186.463 156.047 186.691C156.047 186.919 156.093 187.145 156.181 187.356C156.27 187.567 156.4 187.758 156.564 187.919L167.641 198.829L156.564 209.739C156.4 209.901 156.271 210.092 156.182 210.303C156.093 210.513 156.048 210.739 156.048 210.967C156.048 211.195 156.093 211.421 156.182 211.631C156.271 211.842 156.4 212.033 156.564 212.195C156.728 212.356 156.922 212.484 157.136 212.571C157.349 212.658 157.579 212.703 157.81 212.703C158.041 212.703 158.271 212.658 158.484 212.571C158.698 212.484 158.892 212.356 159.056 212.195L171.376 200.057C171.54 199.896 171.67 199.704 171.759 199.494C171.847 199.283 171.893 199.057 171.893 198.829C171.893 198.601 171.847 198.375 171.759 198.165C171.67 197.954 171.54 197.763 171.376 197.602L159.056 185.464C158.893 185.302 158.698 185.174 158.485 185.087C158.271 184.999 158.042 184.954 157.81 184.954C157.579 184.954 157.349 184.999 157.136 185.087C156.922 185.174 156.727 185.302 156.564 185.464V185.464Z" fill="white" fill-opacity="0.3"/>
<path d="M1357.11 321.623V326.296H1352.36V330.978H1357.11V335.66H1361.86V330.978H1366.61V326.296H1361.86V321.623H1357.11ZM1346.33 321.623H1341.57V326.296H1336.82V330.978H1341.57V335.66H1346.32V330.978H1351.08V326.296H1346.32L1346.33 321.623ZM1335.07 337.481C1333.02 341.078 1329.82 343.904 1325.96 345.522C1322.11 347.139 1317.82 347.456 1313.77 346.423C1309.71 345.39 1306.12 343.065 1303.54 339.811C1300.96 336.556 1299.55 332.554 1299.53 328.427C1299.5 324.3 1300.86 320.281 1303.39 316.993C1305.92 313.706 1309.48 311.335 1313.53 310.25C1317.57 309.165 1321.86 309.426 1325.73 310.994C1329.61 312.561 1332.85 315.346 1334.95 318.916L1351.55 309.509C1347.35 302.342 1340.86 296.743 1333.09 293.583C1325.32 290.423 1316.71 289.878 1308.6 292.034C1300.49 294.189 1293.32 298.924 1288.22 305.502C1283.12 312.081 1280.37 320.135 1280.39 328.414C1280.41 336.693 1283.21 344.733 1288.34 351.285C1293.48 357.838 1300.67 362.536 1308.79 364.65C1316.92 366.763 1325.52 366.175 1333.27 362.975C1341.02 359.775 1347.48 354.143 1351.65 346.955L1335.07 337.481Z" fill="white" fill-opacity="0.3"/>
<path d="M1618.73 303.935C1618.55 308.34 1619.56 312.715 1621.66 316.605C1623.22 319.193 1625.63 321.185 1628.48 322.259C1631.33 323.334 1634.47 323.429 1637.38 322.528C1639.41 321.965 1641.22 320.824 1642.59 319.249C1643.96 317.673 1644.83 315.733 1645.09 313.673L1645.36 312.172C1649.69 312.79 1656.67 313.791 1661 314.401L1660.73 315.483C1659.75 320.424 1657.42 325.008 1653.99 328.741C1650.38 332.323 1645.69 334.644 1640.62 335.353C1633.69 336.668 1626.52 335.969 1619.98 333.339C1616.6 331.96 1613.56 329.874 1611.07 327.224C1608.59 324.574 1606.71 321.423 1605.58 317.99C1602.12 308.908 1602.14 298.896 1605.63 289.825C1607.27 285.122 1610.25 280.986 1614.21 277.909C1618.18 274.832 1622.95 272.946 1627.97 272.474C1633.54 271.531 1639.26 272 1644.59 273.839C1648.4 275.155 1651.81 277.402 1654.5 280.37C1657.18 283.338 1659.07 286.931 1659.97 290.812C1660.2 291.677 1660.25 291.837 1660.25 291.837C1655.43 292.701 1649.48 293.805 1644.7 294.826C1643.8 290.116 1641.54 286.394 1636.72 285.233C1635.05 284.723 1633.3 284.546 1631.56 284.713C1629.82 284.88 1628.14 285.387 1626.6 286.205C1625.07 287.023 1623.71 288.135 1622.62 289.476C1621.52 290.816 1620.71 292.359 1620.23 294.014C1619.82 295.17 1619.5 296.353 1619.27 297.554C1618.86 299.656 1618.68 301.795 1618.73 303.935V303.935Z" fill="white" fill-opacity="0.3"/>
<g clip-path="url(#clip0_101_507)">
<path d="M101.424 86.8111C101.683 86.3013 101.683 85.7915 101.942 85.2858C108.151 61.3217 93.4002 33.2834 68.0461 18.4995C76.4022 28.8404 80.938 41.6749 80.9079 54.8927C80.91 58.9838 80.4792 63.0639 79.6226 67.0669L79.6924 66.6826C79.3351 68.2605 78.8916 69.628 78.3372 70.9389L78.3988 70.773C77.6575 70.3711 76.9392 69.9294 76.247 69.45L76.325 69.4985C56.79 56.7579 39.7723 42.8965 24.3726 27.4653L24.3275 27.4208C34.3393 41.9943 44.7166 54.7309 56.0385 66.5774L55.8906 66.4196C38.9674 55.7383 24.2618 44.6605 10.5581 32.5106L10.8702 32.7817C12.8167 35.9537 14.8618 38.7009 17.1286 41.2498L17.0711 41.181C30.6228 59.0762 45.7761 74.649 62.6501 88.2191L63.1306 88.5913C49.9361 96.5011 31.5633 97.0069 12.9317 88.5913C8.29765 86.4504 3.90076 83.8431 -0.188843 80.811L6.00284e-05 80.9445C8.30357 93.6771 20.0402 103.606 33.9245 109.586L34.4173 109.776C41.3698 113.17 49.5583 115.161 58.2191 115.161C66.8799 115.161 75.0684 113.174 82.3411 109.638L82.0208 109.78H82.2837C82.8832 109.517 83.3965 109.173 83.8359 108.76H83.8318C90.041 105.702 102.205 102.396 108.931 115.125C110.738 118.693 114.101 102.125 101.429 86.8273L101.424 86.8111Z" fill="white" fill-opacity="0.3"/>
</g>
<g clip-path="url(#clip1_101_507)">
<path d="M345.328 322.978C342.501 326.049 338.613 327.611 334.712 327.611C331.28 327.611 327.837 326.403 325.094 323.952L291.537 293.97C291.359 293.811 291.185 293.648 291.016 293.48L317.476 279.041L344.34 303.043C350.2 308.279 350.642 317.204 345.328 322.978V322.978ZM286.909 249.064V246.289C286.909 237.953 280.05 231.196 271.59 231.196C263.13 231.196 256.271 237.953 256.271 246.289V265.782L286.909 249.064V249.064ZM256.102 312.197V313.04C256.102 321.467 263.036 328.299 271.59 328.299C280.144 328.299 287.078 321.467 287.078 313.04V295.295L256.102 312.197ZM347.53 239.176C343.696 232.357 334.979 229.891 328.059 233.668L256.744 272.581V304.847L341.939 258.36C348.859 254.583 351.363 245.994 347.53 239.176H347.53Z" fill="white" fill-opacity="0.3"/>
</g>
<path d="M1007.63 302.041C994.943 305.52 1015.31 312.722 1031.45 306.087C1029.88 305.486 1028.37 304.755 1026.93 303.902C1021.33 305.159 1015.54 305.405 1009.85 304.63C1004.47 304.023 1007.63 302.041 1007.63 302.041V302.041ZM1029.52 295.243C1022.29 296.792 1014.85 297.147 1007.51 296.295C1002.13 295.729 1005.66 293.18 1005.66 293.18C991.699 297.711 1013.42 302.89 1032.93 297.226C1031.66 296.815 1030.5 296.139 1029.52 295.243V295.243ZM1036.99 255.876C1036.99 255.876 1008.78 262.795 1022.25 278.089C1022.78 278.709 1023.17 279.429 1023.4 280.204C1023.64 280.979 1023.71 281.792 1023.61 282.595C1023.52 283.398 1023.25 284.173 1022.84 284.873C1022.43 285.573 1021.88 286.183 1021.23 286.666C1021.23 286.666 1031.33 281.528 1026.69 275.095C1022.05 268.662 1019.05 266.113 1036.99 255.876Z" fill="white" fill-opacity="0.3"/>
<path d="M1043.61 308.635C1043.61 308.635 1045.91 310.497 1041.02 311.953C1031.7 314.745 1002.29 315.594 994.122 311.953C991.165 310.699 996.668 308.959 998.228 308.595C999.153 308.36 1000.11 308.251 1001.06 308.271C997.777 306.006 979.913 312.722 991.986 314.664C1025.04 320.207 1052.11 312.398 1043.61 308.635V308.635ZM1032.27 288.891C1033.48 288.139 1034.74 287.476 1036.05 286.909C1036.05 286.909 1029.85 288.001 1023.73 288.527C1017.15 289.153 1010.53 289.221 1003.94 288.729C994.163 287.475 1009.15 283.793 1009.15 283.793C1004.64 283.759 1000.19 284.8 996.175 286.828C987.715 290.995 1017.08 292.816 1032.27 288.891V288.891ZM1036.01 298.763C1035.92 298.901 1035.81 299.024 1035.68 299.127C1056.21 293.787 1048.74 280.314 1038.88 283.712C1038.34 283.91 1037.87 284.262 1037.53 284.724C1037.53 284.724 1038.1 284.522 1039.29 284.238C1044.3 283.227 1051.29 290.833 1036.01 298.763V298.763ZM1018.43 283.793C1015.39 277.037 1005.05 271.089 1018.43 260.691C1035.23 247.704 1026.65 239.288 1026.65 239.288C1030.1 252.68 1014.33 256.726 1008.82 265.061C1005 270.765 1010.75 276.875 1018.43 283.793Z" fill="white" fill-opacity="0.3"/>
<path d="M1036.54 317.456C1024.14 319.548 1011.47 319.739 999.008 318.022C999.008 318.022 1000.9 319.559 1010.67 320.166C1025.5 321.097 1048.25 319.681 1048.82 312.762C1048.82 312.762 1047.75 315.352 1036.54 317.456V317.456Z" fill="white" fill-opacity="0.3"/>
<path d="M672.637 290.975C673.592 292.883 675.075 294.488 676.914 295.603C678.753 296.718 680.875 297.3 683.035 297.281C687.402 297.281 690.192 295.129 690.192 292.159C690.192 288.599 687.325 287.337 682.52 285.264L679.884 284.151C672.279 280.958 667.225 276.959 667.225 268.505C667.225 260.716 673.25 254.789 682.662 254.789C685.717 254.571 688.769 255.245 691.437 256.726C694.106 258.208 696.272 260.431 697.664 263.119L689.456 268.311C688.919 266.979 687.983 265.84 686.772 265.045C685.562 264.25 684.135 263.836 682.68 263.859C682.046 263.796 681.406 263.864 680.8 264.059C680.194 264.253 679.636 264.57 679.162 264.989C678.687 265.408 678.306 265.92 678.043 266.492C677.781 267.063 677.642 267.683 677.635 268.311C677.635 271.427 679.594 272.686 684.103 274.616L686.74 275.727C695.696 279.511 700.75 283.368 700.75 292.04C700.75 301.389 693.297 306.512 683.284 306.512C679.384 306.756 675.495 305.883 672.087 303.999C668.679 302.114 665.897 299.298 664.078 295.891L672.637 290.975ZM635.406 291.885C637.063 294.78 638.57 297.226 642.182 297.226C645.644 297.226 647.831 295.891 647.831 290.702V255.396H658.37V290.848C658.37 301.599 651.97 306.493 642.632 306.493C639.333 306.669 636.058 305.857 633.237 304.164C630.415 302.471 628.18 299.976 626.826 297.008L635.406 291.885Z" fill="white" fill-opacity="0.3"/>
<g clip-path="url(#clip2_101_507)">
<path d="M1836.33 312.324C1836.69 312.771 1837.16 312.988 1837.51 313.434C1856.88 329.175 1888.91 327.967 1913.28 311.662C1900.23 314.707 1886.51 313.284 1874.38 307.628C1870.62 305.888 1867.06 303.766 1863.75 301.298L1864.07 301.524C1862.78 300.533 1861.71 299.555 1860.74 298.503L1860.87 298.628C1861.55 298.139 1862.26 297.686 1863 297.274L1862.92 297.323C1882.94 285.335 1902.92 276.068 1923.65 268.912L1923.71 268.891C1906.06 271.609 1889.94 275.435 1874.24 280.483L1874.45 280.418C1891.47 269.881 1907.9 261.49 1924.9 254.449L1924.52 254.612C1920.77 254.996 1917.38 255.649 1914.07 256.584L1914.16 256.562C1891.96 261.021 1871.2 267.897 1851.55 277.16L1851.01 277.43C1849.36 262.299 1856.72 245.706 1872.38 232.681C1876.32 229.462 1880.59 226.653 1885.12 224.299L1884.91 224.41C1869.69 226.39 1855.57 232.624 1844.16 242.454L1843.78 242.812C1837.7 247.564 1832.39 254.016 1828.7 261.736C1825.01 269.456 1823.35 277.602 1823.5 285.591L1823.5 285.245L1823.39 285.479C1823.38 286.126 1823.47 286.73 1823.67 287.297L1823.67 287.294C1823.83 294.131 1821.69 306.382 1807.13 306.957C1803.09 307.048 1816.87 317.102 1836.32 312.32L1836.33 312.324Z" fill="white" fill-opacity="0.3"/>
</g>
<path d="M1483.98 215.233C1481.43 217.985 1477.92 219.383 1474.4 219.383C1471.3 219.383 1468.19 218.301 1465.71 216.105L1435.41 189.243C1435.25 189.1 1435.09 188.954 1434.94 188.804L1458.83 175.867L1483.09 197.372C1488.38 202.063 1488.78 210.059 1483.98 215.233V215.233ZM1431.23 149.009V146.522C1431.23 139.054 1425.03 133 1417.39 133C1409.75 133 1403.56 139.054 1403.56 146.522V163.987L1431.23 149.009V149.009ZM1403.41 205.574V206.328C1403.41 213.879 1409.67 220 1417.39 220C1425.12 220 1431.38 213.879 1431.38 206.328V190.43L1403.41 205.574ZM1485.97 140.149C1482.51 134.04 1474.64 131.831 1468.39 135.214L1403.99 170.079V198.988L1480.92 157.337C1487.17 153.954 1489.43 146.258 1485.97 140.149H1485.97Z" fill="white" fill-opacity="0.3"/>
<g clip-path="url(#clip3_101_507)">
<path d="M1564.11 50.1409C1561.87 50.1409 1560.06 52.0765 1560.06 54.4642C1560.06 56.852 1561.87 58.7876 1564.11 58.7876C1566.35 58.7876 1568.16 56.852 1568.16 54.4642C1568.16 52.0765 1566.35 50.1409 1564.11 50.1409ZM1565.95 56.5643C1565.42 56.5643 1564.99 56.0664 1564.99 55.4525C1564.99 54.8386 1565.42 54.3408 1565.95 54.3408C1566.48 54.3408 1566.91 54.8386 1566.91 55.4525C1566.91 56.0664 1566.48 56.5643 1565.95 56.5643ZM1597.99 49.0733C1595.79 49.0733 1594.02 51.0089 1594.02 53.3967C1594.02 55.7844 1595.79 57.72 1597.99 57.72C1600.18 57.72 1601.96 55.7844 1601.96 53.3967C1601.96 51.0089 1600.18 49.0733 1597.99 49.0733ZM1599.83 55.4965C1599.32 55.4965 1598.91 54.9987 1598.91 54.3848C1598.91 53.7709 1599.32 53.273 1599.83 53.273C1600.33 53.273 1600.74 53.7709 1600.74 54.3848C1600.74 54.9989 1600.33 55.4965 1599.83 55.4965ZM1629.99 38.5043C1627.06 37.722 1623.89 38.2986 1620.84 40.3159C1618.12 38.0513 1614.99 36.322 1611.48 35.0043C1605.25 32.7396 1598 31.875 1588.18 31.875C1577.69 32.6985 1569.89 34.3043 1563.46 37.3924C1560.87 38.6276 1558.57 40.1099 1556.56 41.8394C1553.47 39.9453 1550.25 39.4924 1547.28 40.3982C1544.52 41.2217 1542.14 43.1569 1540.72 45.6685C1539.3 48.1801 1538.97 51.0624 1539.93 53.5328C1540.89 56.0033 1543.1 57.9387 1546.41 59.1325C1545.36 63.2913 1544.82 67.6969 1544.73 72.5555C1544.43 83.4802 1546.27 98.2324 1546.44 102.218H1634.12C1634.14 98.5666 1634.91 84.8672 1633.21 69.7144C1632.75 65.35 1632.04 61.3147 1631.03 57.5268C1634.42 56.2502 1636.63 54.1504 1637.51 51.433C1638.35 48.9212 1637.93 46.0802 1636.51 43.5686C1635.05 41.0982 1632.71 39.2453 1629.99 38.5041L1629.99 38.5043ZM1557.13 56.8937C1556.25 52.5292 1557.21 48.7411 1559.72 45.8587C1561.98 43.2646 1565.41 41.6177 1569.13 41.1236C1572.84 40.6707 1576.61 41.4117 1579.45 43.306C1582.62 45.4058 1584.55 48.7411 1584.8 53.0232C1585.72 68.3816 1561.06 72.046 1557.13 56.8937ZM1586.69 78.6883C1586.65 79.4294 1586.6 79.7177 1586.56 80.1294C1586.48 81.6529 1586.48 82.2001 1586.61 83.3532C1584.58 85.4708 1583.03 85.6827 1582.18 84.2667C1581.18 82.5375 1580.95 80.1531 1581.24 78.0588L1586.68 76.3646C1586.68 76.3646 1586.77 77.7413 1586.69 78.6883ZM1593.77 81.6425C1593.77 82.4248 1593.73 83.1248 1593.61 83.7835C1593.31 84.2777 1592.55 85.215 1591.14 85.2165C1589.74 85.218 1589.14 84.4114 1588.68 83.382C1588.56 82.2703 1588.69 78.8705 1588.77 78.1296C1588.86 77.1826 1588.87 76.6724 1588.87 76.1372C1588.87 76.1372 1593.28 77.224 1593.55 77.5862C1593.83 77.9484 1593.77 80.9836 1593.77 81.6423L1593.77 81.6425ZM1597.8 75.6216C1597.01 76.4862 1596.22 76.7745 1595.25 76.7333C1594.5 76.6922 1594 76.4862 1592.33 75.8275C1590.66 75.1275 1589.74 74.8806 1588.65 74.8393C1587.61 74.7158 1586.47 74.9796 1584.26 75.745C1580.98 76.8845 1579.5 76.7745 1578.5 74.9627C1577.1 72.4881 1578.97 69.2056 1581.73 68.4969C1581.59 68.2298 1581.49 67.9658 1581.46 67.6144C1581.34 64.9968 1583.44 62.9474 1586.82 62.4287C1589.93 61.95 1593.66 62.9772 1594.45 65.8209C1594.7 66.7467 1594.5 67.6163 1593.9 68.3656C1595.53 69.1536 1596.96 70.1751 1597.85 71.2569C1599.1 72.7392 1599.14 74.2216 1597.8 75.6214V75.6216ZM1616.29 60.067C1614.16 62.6197 1610.9 64.3492 1607.26 64.9667C1599.28 66.2842 1592.05 62.208 1590.67 54.22V54.1788C1589.67 37.997 1614.75 33.6739 1618.46 49.4437C1619.47 53.5611 1618.63 57.2258 1616.29 60.0668V60.067ZM1593.38 66.1031C1593.58 66.8213 1593.37 67.4454 1592.74 68.0108C1591.05 69.5218 1586.87 70.0892 1584.29 69.1563C1583.57 68.8951 1582.68 68.3996 1582.56 67.5202C1582.5 65.9117 1583.63 64.0192 1586.99 63.5025C1590.53 62.9592 1592.92 64.4362 1593.38 66.1031V66.1031Z" fill="white" fill-opacity="0.3"/>
</g>
<path d="M316.989 43.3491H324.322V72.2487H316.989V60.2072H307.212V72.2487H299.878V43.3491H307.212V52.9823H316.989V43.3491ZM292.545 50.574V55.3906C292.545 59.2439 289.123 62.6155 285.212 62.6155H275.435V72.2487H268.101V43.3491H285.212C289.123 43.3491 292.545 46.7207 292.545 50.574ZM285.212 50.574H275.435V55.3906H285.212V50.574ZM358.544 50.574V55.3906C358.544 59.2439 355.122 62.6155 351.211 62.6155H341.433V72.2487H334.1V43.3491H351.211C355.122 43.3491 358.544 46.7207 358.544 50.574ZM351.211 50.574H341.433V55.3906H351.211V50.574Z" fill="white" fill-opacity="0.3"/>
<path d="M524.479 197.844C511.789 201.324 532.158 208.526 548.297 201.89C546.731 201.29 545.219 200.559 543.78 199.705C538.176 200.962 532.389 201.209 526.696 200.434C521.317 199.827 524.479 197.844 524.479 197.844V197.844ZM546.367 191.047C539.139 192.596 531.701 192.951 524.355 192.099C518.976 191.533 522.508 188.984 522.508 188.984C508.545 193.515 530.269 198.694 549.775 193.03C548.507 192.619 547.344 191.943 546.367 191.047V191.047ZM553.841 151.68C553.841 151.68 525.629 158.599 539.098 173.892C539.624 174.513 540.015 175.233 540.249 176.008C540.483 176.782 540.554 177.596 540.458 178.399C540.362 179.201 540.1 179.976 539.69 180.676C539.28 181.376 538.729 181.987 538.071 182.47C538.071 182.47 548.174 177.331 543.533 170.898C538.893 164.465 535.895 161.916 553.841 151.68Z" fill="white" fill-opacity="0.3"/>
<path d="M560.452 204.439C560.452 204.439 562.752 206.3 557.865 207.757C548.543 210.549 519.14 211.398 510.968 207.757C508.011 206.503 513.514 204.763 515.075 204.399C516 204.163 516.953 204.055 517.908 204.075C514.623 201.809 496.759 208.526 508.833 210.468C541.891 216.011 568.953 208.202 560.452 204.439V204.439ZM549.118 184.695C550.326 183.943 551.589 183.28 552.896 182.712C552.896 182.712 546.695 183.805 540.576 184.331C533.997 184.957 527.374 185.024 520.783 184.533C511.009 183.279 525.998 179.597 525.998 179.597C521.487 179.563 517.035 180.604 513.021 182.632C504.562 186.799 533.924 188.62 549.118 184.695V184.695ZM552.855 194.567C552.765 194.704 552.655 194.827 552.527 194.931C573.06 189.591 565.586 176.118 555.73 179.516C555.186 179.713 554.714 180.065 554.375 180.528C554.375 180.528 554.95 180.325 556.14 180.042C561.15 179.031 568.132 186.637 552.855 194.567V194.567ZM535.279 179.597C532.24 172.84 521.892 166.893 535.279 156.495C552.075 143.507 543.492 135.092 543.492 135.092C546.942 148.484 531.172 152.53 525.67 160.864C521.85 166.569 527.6 172.679 535.279 179.597Z" fill="white" fill-opacity="0.3"/>
<path d="M553.389 213.259C540.982 215.352 528.321 215.543 515.855 213.826C515.855 213.826 517.744 215.363 527.518 215.97C542.342 216.901 565.093 215.484 565.668 208.566C565.668 208.566 564.6 211.155 553.389 213.259V213.259Z" fill="white" fill-opacity="0.3"/>
<path d="M623.358 73.6504C624.313 75.5588 625.796 77.1628 627.635 78.2782C629.474 79.3936 631.596 79.9752 633.756 79.956C638.123 79.956 640.913 77.8046 640.913 74.8339C640.913 71.2744 638.046 70.0121 633.241 67.9396L630.605 66.8259C623 63.6337 617.946 59.6343 617.946 51.1803C617.946 43.3909 623.971 37.4646 633.383 37.4646C636.438 37.2462 639.49 37.9199 642.158 39.4014C644.827 40.8829 646.993 43.1065 648.385 45.7941L640.177 50.9861C639.64 49.6543 638.704 48.5151 637.493 47.72C636.283 46.9248 634.856 46.5114 633.401 46.5345C632.767 46.4717 632.127 46.5397 631.521 46.7342C630.915 46.9288 630.357 47.2455 629.883 47.6644C629.408 48.0832 629.027 48.5949 628.764 49.1668C628.502 49.7387 628.363 50.3583 628.356 50.9861C628.356 54.1025 630.315 55.3618 634.824 57.2917L637.461 58.4023C646.417 62.1863 651.471 66.043 651.471 74.7155C651.471 84.0647 644.018 89.1868 634.005 89.1868C630.105 89.4312 626.216 88.5585 622.808 86.674C619.4 84.7895 616.618 81.9737 614.798 78.5662L623.358 73.6504ZM586.127 74.5607C587.784 77.4556 589.29 79.9014 592.903 79.9014C596.365 79.9014 598.552 78.5662 598.552 73.3773V38.0715H609.091V73.523C609.091 84.274 602.691 89.1686 593.353 89.1686C590.054 89.3445 586.779 88.5325 583.958 86.8394C581.136 85.1463 578.901 82.6514 577.547 79.6829L586.127 74.5607Z" fill="white" fill-opacity="0.3"/>
<path d="M1893.16 85.5309C1893.16 85.5309 1895.46 87.3921 1890.57 88.8486C1881.25 91.6403 1851.85 92.4899 1843.68 88.8486C1840.72 87.5944 1846.22 85.8546 1847.78 85.4905C1848.71 85.2553 1849.66 85.1463 1850.62 85.1668C1847.33 82.9011 1829.47 89.6173 1841.54 91.5594C1874.6 97.1023 1901.66 89.2937 1893.16 85.5309V85.5309ZM1881.83 65.7868C1883.03 65.0343 1884.3 64.3717 1885.6 63.8043C1885.6 63.8043 1879.4 64.8967 1873.28 65.4226C1866.7 66.0483 1860.08 66.116 1853.49 65.6249C1843.72 64.3707 1858.71 60.6889 1858.71 60.6889C1854.19 60.6545 1849.74 61.6956 1845.73 63.7233C1837.27 67.8907 1866.63 69.7113 1881.83 65.7868V65.7868ZM1885.56 75.6589C1885.47 75.7963 1885.36 75.9191 1885.23 76.023C1905.77 70.6824 1898.29 57.2094 1888.44 60.608C1887.89 60.805 1887.42 61.1571 1887.08 61.6195C1887.08 61.6195 1887.66 61.4172 1888.85 61.1339C1893.86 60.1225 1900.84 67.7288 1885.56 75.6589V75.6589ZM1867.99 60.6889C1864.95 53.9322 1854.6 47.9847 1867.99 37.5866C1884.78 24.5991 1876.2 16.1836 1876.2 16.1836C1879.65 29.5756 1863.88 33.6216 1858.38 41.9562C1854.56 47.661 1860.31 53.7703 1867.99 60.6889Z" fill="white" fill-opacity="0.3"/>
<ellipse cx="755.611" cy="141.03" rx="11.7331" ry="11.5598" fill="white" fill-opacity="0.3"/>
<ellipse cx="1168.73" cy="28.5598" rx="11.7331" ry="11.5598" fill="white" fill-opacity="0.3"/>
<ellipse cx="30.5059" cy="175.709" rx="11.7331" ry="11.5598" fill="white" fill-opacity="0.3"/>
<ellipse cx="145.49" cy="300.555" rx="11.7331" ry="11.5598" fill="white" fill-opacity="0.3"/>
<ellipse cx="915.181" cy="360.666" rx="11.7331" ry="11.5598" fill="white" fill-opacity="0.3"/>
<ellipse cx="1107.6" cy="349.107" rx="11.7331" ry="11.5598" fill="white" fill-opacity="0.3"/>
<ellipse cx="732.733" cy="25.5598" rx="11.7331" ry="11.5598" fill="white" fill-opacity="0.3"/>
<ellipse cx="1734.15" cy="50.863" rx="11.7331" ry="11.5598" fill="white" fill-opacity="0.3"/>
<ellipse cx="1748.23" cy="349.107" rx="11.7331" ry="11.5598" fill="white" fill-opacity="0.3"/>
<ellipse cx="1867.91" cy="152.59" rx="11.7331" ry="11.5598" fill="white" fill-opacity="0.3"/>
<ellipse cx="1788.12" cy="261.252" rx="11.7331" ry="11.5598" fill="white" fill-opacity="0.3"/>
<ellipse cx="1661.41" cy="175.709" rx="11.7331" ry="11.5598" fill="white" fill-opacity="0.3"/>
<ellipse cx="1539.38" cy="198.829" rx="11.7331" ry="11.5598" fill="white" fill-opacity="0.3"/>
<ellipse cx="1321.15" cy="152.59" rx="11.7331" ry="11.5598" fill="white" fill-opacity="0.3"/>
<ellipse cx="1199.12" cy="242.756" rx="11.7331" ry="11.5598" fill="white" fill-opacity="0.3"/>
<ellipse cx="729.733" cy="229.56" rx="11.7331" ry="11.5598" fill="white" fill-opacity="0.3"/>
<ellipse cx="638.28" cy="164.15" rx="11.7331" ry="11.5598" fill="white" fill-opacity="0.3"/>
<ellipse cx="492.79" cy="48.551" rx="11.7331" ry="11.5598" fill="white" fill-opacity="0.3"/>
<ellipse cx="363.726" cy="141.03" rx="11.7331" ry="11.5598" fill="white" fill-opacity="0.3"/>
<circle cx="1429.5" cy="34.5" r="16.5" fill="white" fill-opacity="0.3"/>
<ellipse cx="483.403" cy="252.004" rx="21.1196" ry="20.8077" fill="white" fill-opacity="0.3"/>
<defs>
<clipPath id="clip0_101_507">
<rect width="110.878" height="97.1025" fill="white" transform="translate(0 18.4956)"/>
</clipPath>
<clipPath id="clip1_101_507">
<rect width="98.558" height="97.1025" fill="white" transform="translate(253.435 231.196)"/>
</clipPath>
<clipPath id="clip2_101_507">
<rect width="109.539" height="98.2956" fill="white" transform="matrix(-0.431082 0.902313 -0.907196 -0.420708 1942.26 251.006)"/>
</clipPath>
<clipPath id="clip3_101_507">
<rect width="98.558" height="97.1025" fill="white" transform="translate(1539.38 18.4956)"/>
</clipPath>
</defs>
</svg>
